<svg width="32" height="32" viewBox="0 0 32 32" fill="none" xmlns="http://www.w3.org/2000/svg">
  <!-- Background circle -->
  <circle cx="16" cy="16" r="16" fill="#000000"/>
  
  <!-- Main "D" shape with modern twist -->
  <path d="M8 6h8c5.523 0 10 4.477 10 10s-4.477 10-10 10H8V6z" fill="#FFFFFF"/>
  <path d="M8 6h8c5.523 0 10 4.477 10 10s-4.477 10-10 10H8V6z" fill="url(#gradient1)"/>
  
  <!-- AI/Circuit pattern overlay -->
  <g opacity="0.3">
    <circle cx="13" cy="11" r="1" fill="#00FF88"/>
    <circle cx="19" cy="13" r="1" fill="#00FF88"/>
    <circle cx="15" cy="19" r="1" fill="#00FF88"/>
    <path d="M13 11L19 13M19 13L15 19" stroke="#00FF88" stroke-width="0.5" opacity="0.6"/>
  </g>
  
  <!-- Liquidity drops/bubbles -->
  <circle cx="21" cy="21" r="2" fill="#0066FF" opacity="0.7"/>
  <circle cx="24" cy="18" r="1.5" fill="#0066FF" opacity="0.5"/>
  <circle cx="18" cy="24" r="1" fill="#0066FF" opacity="0.8"/>
  
  <!-- Gradient definitions -->
  <defs>
    <linearGradient id="gradient1" x1="0%" y1="0%" x2="100%" y2="100%">
      <stop offset="0%" style="stop-color:#FFFFFF;stop-opacity:1" />
      <stop offset="50%" style="stop-color:#E0E0E0;stop-opacity:1" />
      <stop offset="100%" style="stop-color:#FFFFFF;stop-opacity:1" />
    </linearGradient>
  </defs>
</svg>