<svg width="256" height="256" viewBox="0 0 256 256" fill="none" xmlns="http://www.w3.org/2000/svg">
  <!-- Background -->
  <rect width="256" height="256" rx="32" fill="#000000"/>
  
  <!-- Main "D" letterform -->
  <path d="M64 48h64c53.02 0 96 42.98 96 96s-42.98 96-96 96H64V48z" fill="#FFFFFF"/>
  
  <!-- Inner cutout to create the "D" -->
  <path d="M96 80v96h32c35.35 0 64-28.65 64-64s-28.65-64-64-64H96z" fill="#000000"/>
  
  <!-- AI Circuit accent -->
  <g opacity="0.8">
    <circle cx="180" cy="100" r="3" fill="#00FF88"/>
    <circle cx="200" cy="120" r="3" fill="#00FF88"/>
    <circle cx="180" cy="140" r="3" fill="#00FF88"/>
    <path d="M180 100L200 120M200 120L180 140" stroke="#00FF88" stroke-width="2"/>
  </g>
  
  <!-- Liquidity bubble accent -->
  <circle cx="200" cy="200" r="12" fill="#0066FF" opacity="0.7"/>
  <circle cx="220" cy="180" r="8" fill="#0066FF" opacity="0.5"/>
  <circle cx="180" cy="220" r="6" fill="#0066FF" opacity="0.8"/>
</svg>